<?xml version="1.0" encoding="UTF-8"?>
<svg id="Capa_1" data-name="Capa 1" xmlns="http://www.w3.org/2000/svg" viewBox="0 0 273.79 31.56">
  <defs>
    <style>
      .cls-1 {
        fill: none;
        stroke: #174f8a;
        stroke-miterlimit: 10;
        stroke-width: 4px;
      }
    </style>
  </defs>
  <g>
    <polyline class="cls-1" points="0 22.89 9.47 22.89 9.47 9 23.48 9 23.48 29.56 50.81 29.56 50.81 15.88 36.37 15.88 36.37 2 64.26 2 64.59 22.93 70.88 22.89"/>
    <polyline class="cls-1" points="0 29.56 16.59 29.56 16.59 15.88 2.9 15.88 2.9 2 30.26 2 30.26 22.67 43.59 22.67 43.59 9.33 57.59 9.33 57.59 29.56 70.97 29.56"/>
    <polyline class="cls-1" points="67.6 22.89 77.08 22.89 77.08 9 91.08 9 91.08 29.56 118.41 29.56 118.41 15.88 103.97 15.88 103.97 2 131.86 2 131.86 22.89 138.58 22.89"/>
    <polyline class="cls-1" points="67.6 29.56 84.19 29.56 84.19 15.88 70.5 15.88 70.5 2 97.86 2 97.86 22.67 111.2 22.67 111.2 9.33 125.19 9.33 125.19 29.56 138.58 29.56"/>
  </g>
  <g>
    <polyline class="cls-1" points="135.22 22.89 144.69 22.89 144.69 9 158.69 9 158.69 29.56 186.03 29.56 186.03 15.88 171.58 15.88 171.58 2 199.47 2 199.81 22.93 206.1 22.89"/>
    <polyline class="cls-1" points="135.22 29.56 151.81 29.56 151.81 15.88 138.11 15.88 138.11 2 165.47 2 165.47 22.67 178.81 22.67 178.81 9.33 192.81 9.33 192.81 29.56 206.19 29.56"/>
    <polyline class="cls-1" points="202.82 22.89 212.29 22.89 212.29 9 226.3 9 226.3 29.56 253.63 29.56 253.63 15.88 239.19 15.88 239.19 2 267.07 2 267.07 22.78 273.79 22.78"/>
    <polyline class="cls-1" points="202.82 29.56 219.41 29.56 219.41 15.88 205.72 15.88 205.72 2 233.07 2 233.07 22.67 246.41 22.67 246.41 9.33 260.41 9.33 260.41 29.56 273.79 29.56"/>
  </g>
</svg>
